<svg width="1074" height="739" xmlns="http://www.w3.org/2000/svg">
 <defs>
  <linearGradient y2="0.00011" x2="0.5" y1="0.99998" x1="0.5" id="cf277671-cf0a-49c3-95f9-02fb51e7bec0">
   <stop stop-opacity="0.25" stop-color="gray" offset="0"/>
   <stop stop-opacity="0.12" stop-color="gray" offset="0.54"/>
   <stop stop-opacity="0.1" stop-color="gray" offset="1"/>
  </linearGradient>
 </defs>
 <title>successful purchase</title>
 <g>
  <title>background</title>
  <rect fill="none" id="canvas_background" height="602" width="802" y="-1" x="-1"/>
 </g>
 <g>
  <title>Layer 1</title>
  <rect id="svg_1" opacity="0.1" fill="#01c000" ry="5.17" rx="5.17" height="30" width="80" y="77" x="330"/>
  <rect id="svg_2" opacity="0.1" fill="#01c000" ry="5.17" rx="5.17" height="30" width="80" y="50" x="568"/>
  <rect id="svg_3" opacity="0.1" fill="#01c000" ry="5.17" rx="5.17" height="30" width="80" y="355" x="524"/>
  <rect id="svg_4" opacity="0.1" fill="#01c000" ry="5.17" rx="5.17" height="30" width="80" y="388" x="560"/>
  <rect id="svg_5" opacity="0.1" fill="#01c000" ry="5.17" rx="5.17" height="30" width="80" y="373" x="774"/>
  <rect id="svg_6" opacity="0.1" fill="#01c000" ry="5.17" rx="5.17" height="30" width="80" y="397" x="123"/>
  <rect id="svg_7" opacity="0.1" fill="#01c000" ry="5.17" rx="5.17" height="30" width="80" y="421" x="499"/>
  <path id="svg_8" fill="url(#cf277671-cf0a-49c3-95f9-02fb51e7bec0)" d="m718.91,182.21l-36.66,-106.42l-13.18,2l-11.8,1.51c0.3,-4 0.82,-18.36 -6.5,-25.89c-0.71,-2.58 -2.58,-5.51 -6.18,-8.81c-17.54,-16.08 -21.19,16.81 -21.19,16.81s-4,6.94 -9.51,16.64l-2.89,-0.55l-0.82,7.16c-12.2,21.57 -28.41,50.76 -28.41,53.5c0,4.39 -2.19,10.23 -2.19,10.23s-12.42,20.46 -16.81,30.7a49.09,49.09 0 0 1 -11,16.08s-1.06,0.81 -2.8,2a25,25 0 0 1 1,-5.71c1.6,-5.23 5.32,-9.71 6.31,-15.09a17.62,17.62 0 0 0 0.26,-3.91c0.23,-6.31 -2.84,-12.52 -4.12,-18.83c-1.49,-7.31 -0.69,-15.36 -4.59,-21.71c-3,-4.85 -8.32,-7.87 -13.85,-9.26c-5.08,-1.27 -10.08,-0.82 -15.2,-1.36c-4.7,-0.5 -9.19,-2.58 -13.89,-3.35a17.93,17.93 0 0 0 -7.62,0c-7.95,2.19 -10.44,12.21 -16.58,17.72c-2.21,2 -4.92,3.38 -6.92,5.57c-2.91,3.19 -3.92,7.64 -3.77,12a25.56,25.56 0 0 0 0.26,4.37c0.76,5.23 2.78,10.18 4,15.31a53,53 0 0 1 1.49,11.59c0,0.88 0,1.76 -0.08,2.63a9.23,9.23 0 0 1 -1.35,5c-1.11,1.53 -2.94,2.27 -4.57,3.25a35.45,35.45 0 0 1 -11.52,-16.34s-0.27,0.34 -0.73,1l0,-1s-10,-14.68 -11.52,-26.67l3.48,0.36l8,-112.55l-20.43,-3c-0.57,-5.81 -2.12,-14.24 -6.23,-20.39c3.43,-6.76 5.16,-15.91 -9.88,-16.82c-17.6,-1.07 -16.52,12.64 -14.65,20.14a50.45,50.45 0 0 0 -1,12.45l-18,-2.62l-0.1,1.46l-4.28,0l-13.1,114.82l11.16,-0.56l40.9,4.26c3.27,29.73 8.41,66.47 14.51,75.13a7.39,7.39 0 0 0 0.67,0.83l0,52.61s-0.73,68 -13.16,78.93a65,65 0 0 1 23.78,-3.73c-0.14,0.45 -0.28,0.93 -0.42,1.44a127.58,127.58 0 0 0 -3.79,20.48q-0.26,2.29 -0.47,4.78a257.87,257.87 0 0 0 0.63,45.73c5.12,54.08 13.16,92.82 13.16,92.82l2.24,31.44s-2.19,53.35 3.65,70.89a26.47,26.47 0 0 0 7.48,4.85c0.05,0.5 0.11,1 0.16,1.53s0.13,1.35 0.2,2.05c-2.62,1.19 -7.51,5.91 -8.57,24.45c0,0 1.46,13.89 -2.19,20.46s-1.46,25.58 9.5,27.77a58.57,58.57 0 0 0 21.19,0s5.12,0 1.46,-18.27l-0.64,-4.68c-0.08,-9.05 0.3,-18.74 2.1,-21.63c3.65,-5.85 -1.46,-11.69 -1.46,-11.69s-0.36,0.2 -0.95,0.47c-0.94,-5.05 -2.17,-13.25 -1.73,-19.51c0,-0.53 0.09,-1 0.15,-1.55a30.78,30.78 0 0 0 6.19,-4.27l0,-69.41s-0.73,-106.7 7.31,-108.9c0,0 3.65,38.73 2.19,57.74s2.19,39.47 2.19,39.47l1.46,77.47s1.4,0.67 3.66,1.46l-0.15,1.41c-0.89,8.61 -2.32,21.61 -3.62,29.57a5.88,5.88 0 0 0 -3.55,4.1c-2.19,7.31 -0.73,25.58 -5.12,30.7c-2.59,3 -5.69,9.11 -4.17,13.43c-0.95,3.79 -0.53,9.71 10.75,10.69c16.81,1.46 24.12,-7.31 24.12,-7.31s2.19,-3.65 0,-10.23s0.73,-18.27 0.73,-18.27s1.57,-9.92 -1,-11.22c-0.22,-1.18 -0.42,-1.93 -0.42,-1.93a8.8,8.8 0 0 0 -2.31,-6.08c-0.06,-7.65 0.25,-21.8 2.94,-31.12c0.16,-0.53 0.32,-1 0.49,-1.55a19.74,19.74 0 0 0 6.18,-2.17s-0.73,-16.81 4.39,-28.5s2.19,-58.47 2.19,-58.47s-2.19,-12.29 0.9,-22.25a218.32,218.32 0 0 0 7.94,-33.8l4.31,-30.19s11.35,-36.75 -3.6,-74.47c-0.61,-1.56 -1.28,-3.12 -2,-4.68c-1.24,-2.71 -2.62,-5.43 -4.16,-8.13c-0.24,-0.42 -0.5,-0.85 -0.75,-1.27c1.57,-0.39 2.46,-0.62 2.46,-0.62s-19.73,-46 -7.31,-69.43c0,0 7,-7 8,-14.69c1.24,-10.17 2.59,-20.33 4.81,-30.33l0.39,-1.76s0.06,-0.34 0.16,-0.95c0.28,-0.18 0.55,-0.37 0.82,-0.57c21.06,-15.38 39.22,-79.6 39.22,-79.6l5.85,-11l2.78,-5.88l-5.7,49.73l44.58,11l28.5,-2.19l-0.08,-6.13l21.72,-1.69l26.27,-11.03zm-282.6,-145l-7.92,-1.16c-1.39,-7.15 -2.33,-11.84 -2.33,-11.84a43.44,43.44 0 0 0 4.39,-6.57c3.83,5.86 5.3,13.86 5.86,19.53l0,0.04zm-29.58,-15.35c0.55,1.88 1.05,3.09 1.05,3.09l1,8.25l-2.7,-0.39a54.19,54.19 0 0 1 0.66,-10.99l-0.01,0.04zm249.8,57.61l-10.72,1.38c1.51,-4.44 3.38,-11.72 2.29,-18.31a9.19,9.19 0 0 0 2.94,-7.65c6.37,7.61 5.77,21.05 5.49,24.55l0,0.03zm-17.8,-11.41a26.56,26.56 0 0 0 8.73,-4.91c0.92,6.47 -1,13.58 -2.46,17.8l-10,1.28l-2.76,-0.53l6.49,-13.64z"/>
  <polygon id="svg_9" fill="#01c000" points="717 184.1 690.91 194.99 660.6 89.3 667.71 80.86 680.74 78.84 717 184.1"/>
  <polygon id="svg_10" opacity="0.2" fill="#fff" points="717 184.1 690.91 194.99 660.6 89.3 667.71 80.86 680.74 78.84 717 184.1"/>
  <polygon id="svg_11" fill="#01c000" points="667.71 80.86 622.43 86.67 645.64 198.51 690.91 194.99 667.71 80.86"/>
  <polygon id="svg_12" opacity="0.07" fill="#fff" points="667.71 80.86 622.43 86.67 645.64 198.51 690.91 194.99 667.71 80.86"/>
  <path id="svg_13" fill="#535461" d="m655.94,83.38l-0.72,-0.09c0,-0.27 3,-26.67 -13.57,-30l0.14,-0.71c17.28,3.47 14.21,30.53 14.15,30.8z"/>
  <rect id="svg_14" fill="#774e55" height="73.01" width="49.88" y="160.44" x="488.44"/>
  <rect id="svg_15" opacity="0.2" height="73.01" width="49.88" y="160.44" x="488.44"/>
  <polygon id="svg_16" fill="#01c000" points="669.51 202.72 641.32 204.89 645.66 95.02 655.05 89.24 668.06 91.41 669.51 202.72"/>
  <polygon id="svg_17" opacity="0.2" points="669.51 202.72 641.32 204.89 645.66 95.02 655.05 89.24 668.06 91.41 669.51 202.72"/>
  <polygon id="svg_18" fill="#01c000" points="655.05 89.24 610.24 80.56 597.23 194.05 641.32 204.89 655.05 89.24"/>
  <polygon id="svg_19" fill="#01c000" points="391.22 35.03 384.71 35.03 371.7 148.51 400.61 147.07 391.22 35.03"/>
  <polygon id="svg_20" opacity="0.2" points="391.22 35.03 384.71 35.03 371.7 148.51 400.61 147.07 391.22 35.03"/>
  <polygon id="svg_21" fill="#01c000" points="389.05 33.58 381.1 147.79 450.49 155.02 458.44 43.7 389.05 33.58"/>
  <path id="svg_22" fill="#5c3d53" d="m472.9,626.31s-8.67,-0.72 -10.12,24.58c0,0 1.45,13.73 -2.17,20.24s-1.45,25.3 9.4,27.47a57.93,57.93 0 0 0 21,0s5.06,0 1.45,-18.07l-7.23,-52.77l-12.33,-1.45z"/>
  <path id="svg_23" opacity="0.05" d="m472.9,626.31s-8.67,-0.72 -10.12,24.58c0,0 1.45,13.73 -2.17,20.24s-1.45,25.3 9.4,27.47a57.93,57.93 0 0 0 21,0s5.06,0 1.45,-18.07l-7.23,-52.77l-12.33,-1.45z"/>
  <path id="svg_24" fill="#f8bdc5" d="m518.35,208.9c-0.62,10.76 1.53,17 1.53,17l-18.79,5.06s-31.08,4.34 -18.79,-8c4.25,-4.25 6.34,-11.54 7.25,-19.24a106.62,106.62 0 0 0 0.53,-15.84a141.2,141.2 0 0 0 -1.28,-14.8s45.54,-15.9 35.42,10.12a92.54,92.54 0 0 0 -4.35,14.5a76.45,76.45 0 0 0 -1.52,11.2z"/>
  <path id="svg_25" opacity="0.1" d="m524.22,183.21a92.54,92.54 0 0 0 -4.35,14.5a31.14,31.14 0 0 1 -29.79,-9.82a141.2,141.2 0 0 0 -1.28,-14.8s45.54,-15.9 35.42,10.12z"/>
  <circle id="svg_26" fill="#f8bdc5" r="31.08" cy="165.86" cx="513.38"/>
  <path id="svg_27" fill="#f8bdc5" d="m458.44,181.04l0,9.4l-15.9,41.2l-4.34,-4.34a7.3,7.3 0 0 1 -0.66,-0.82c-10.5,-14.92 -18.14,-114.11 -18.14,-114.11l-10.11,-83.87s-10.84,-26 13,-24.58s5.06,23.85 5.06,23.85s15.9,79.51 13.73,82.4s0,11.57 0,11.57s6.51,16.63 5.78,28.91s11.58,30.39 11.58,30.39z"/>
  <path id="svg_28" fill="#f8bdc5" d="m637.7,71.17l-37.59,79.51l-5.78,10.82s-18,63.52 -38.79,78.73a19,19 0 0 1 -3.86,2.23l-4.34,-34.7l4,-10.08l0.3,-0.77a48.55,48.55 0 0 0 10.84,-15.9c4.34,-10.12 16.63,-30.36 16.63,-30.36s2.17,-5.78 2.17,-10.12s41.2,-75.9 41.2,-75.9s3.61,-32.53 21,-16.63s-5.78,23.17 -5.78,23.17z"/>
  <path id="svg_29" fill="#f8bdc5" d="m492.41,647.99s-24.58,10.12 -21.69,0.72c1.76,-5.7 1.11,-16.47 0.33,-24c-0.5,-4.91 -1.06,-8.49 -1.06,-8.49l21,2.17a17,17 0 0 0 -1.21,5.75c-0.69,9.59 2.63,23.85 2.63,23.85z"/>
  <path id="svg_30" fill="#f8bdc5" d="m530.63,619.87c-3.79,13.16 -2.8,36.08 -2.8,36.08s-22.41,2.89 -20.24,-2.89c1.51,-4 3.72,-23.82 4.92,-35.47c0.53,-5.09 0.86,-8.62 0.86,-8.62l20.24,4.34a20.22,20.22 0 0 0 -2.98,6.56z"/>
  <path id="svg_31" opacity="0.1" d="m470,616.19l21,2.17a17,17 0 0 0 -1.21,5.75a21.43,21.43 0 0 1 -18.7,0.57c-0.53,-4.92 -1.09,-8.49 -1.09,-8.49z"/>
  <path id="svg_32" opacity="0.1" d="m533.62,613.3a20.22,20.22 0 0 0 -3,6.57c-6.83,1.1 -14,-0.83 -18.11,-2.28c0.53,-5.09 0.86,-8.62 0.86,-8.62l20.25,4.33z"/>
  <path id="svg_33" fill="#5e52ad" d="m556.75,444.87l-4.26,29.86a215.92,215.92 0 0 1 -7.86,33.43c-3.06,9.85 -0.89,22 -0.89,22s2.89,46.26 -2.17,57.83s-4.34,28.19 -4.34,28.19c-11.57,6.51 -28.19,-1.45 -28.19,-1.45l-1.45,-76.62s-3.61,-20.24 -2.17,-39s-2.17,-57.1 -2.17,-57.1c-8,2.17 -7.23,107.7 -7.23,107.7l0,68.67c-17.35,15.18 -32.53,0 -32.53,0c-5.78,-17.35 -3.61,-70.12 -3.61,-70.12l-2.17,-31.08s-8,-38.31 -13,-91.8a255,255 0 0 1 -0.62,-45.23q0.21,-2.46 0.46,-4.73a126.18,126.18 0 0 1 3.74,-20.25a45.58,45.58 0 0 1 2.2,-6.41l77.67,3.61l4.58,0.21l11,0.51c1.2,1.81 2.33,3.65 3.38,5.49c1.52,2.67 2.89,5.36 4.11,8c0.7,1.54 1.36,3.09 2,4.63c14.77,37.29 3.52,73.66 3.52,73.66z"/>
  <path id="svg_34" opacity="0.1" d="m471.45,355.97s-3.4,34 -27.37,24.16q0.21,-2.46 0.46,-4.73c5.64,1.53 21.25,3.64 21.84,-19.44l5.07,0.01z"/>
  <path id="svg_35" opacity="0.1" d="m553.19,371.22c-16.6,5.93 -22.86,-9.86 -25,-18.87l4.58,0.21c2.49,14.17 12.43,15 18.48,14c0.68,1.58 1.33,3.13 1.94,4.66z"/>
  <path id="svg_36" fill="#5c3d53" d="m479.34,644.15c-3.69,-0.58 -9.33,-2.61 -7.56,-9.7c0,0 -6.83,-2.36 -6.11,25.83c0,0 -0.72,13.73 -2.17,16.63s0,20.24 15.18,18.79c0,0 10.84,3.61 13.73,-2.17c0,0 -2.17,-33.25 1.45,-39s-1.45,-11.57 -1.45,-11.57s-5.12,2.84 -8.8,2c-1.4,-0.39 -2.84,-0.58 -4.27,-0.81z"/>
  <path id="svg_37" fill="#5c3d53" d="m497.47,691.36s-7.23,12.29 9.4,13.73s23.85,-7.23 23.85,-7.23s2.17,-3.61 0,-10.12s0.72,-18.07 0.72,-18.07s2.17,-13.73 -2.89,-10.84s-31.08,32.53 -31.08,32.53z"/>
  <path id="svg_38" opacity="0.05" d="m497.47,691.36s-7.23,12.29 9.4,13.73s23.85,-7.23 23.85,-7.23s2.17,-3.61 0,-10.12s0.72,-18.07 0.72,-18.07s2.17,-13.73 -2.89,-10.84s-31.08,32.53 -31.08,32.53z"/>
  <path id="svg_39" fill="#5c3d53" d="m516.27,647.27s-8.67,-3.61 -10.84,3.61s-0.72,25.3 -5.06,30.36s-10.12,18.79 7.23,18.07s21,-6.51 21,-6.51s-0.72,-18.07 1.45,-23.13s0,-13 0,-13s0.67,-10.17 -13.78,-9.4z"/>
  <circle id="svg_40" opacity="0.2" r="1.45" cy="43.7" cx="407.84"/>
  <circle id="svg_41" opacity="0.2" r="1.45" cy="47.31" cx="438.2"/>
  <path id="svg_42" fill="#535461" d="m438.56,47.32l-0.72,0c0,-0.31 0.51,-30.8 -17,-33.61c-3.45,-0.55 -6.27,0.23 -8.38,2.32c-7.23,7.17 -4.24,27.42 -4.21,27.62l-0.71,0.11c-0.13,-0.85 -3.07,-20.82 4.42,-28.24c2.28,-2.27 5.32,-3.12 9,-2.53c18.12,2.9 17.61,34.02 17.6,34.33z"/>
  <path id="svg_43" fill="#535461" d="m643.09,87.95l-0.65,-0.31c0.11,-0.24 11.25,-24.37 -3.47,-32.78l0.36,-0.63c15.29,8.74 3.88,33.47 3.76,33.72z"/>
  <path id="svg_44" opacity="0.1" d="m519.88,225.86l-18.79,5.06s-31.08,4.34 -18.79,-8c4.25,-4.25 6.34,-11.54 7.25,-19.24c4.91,7.7 10.82,5.51 10.82,5.51l17.92,-0.35l0.07,0c-0.63,10.82 1.52,17.02 1.52,17.02z"/>
  <path id="svg_45" opacity="0.1" d="m555.55,240.25a19,19 0 0 1 -3.86,2.23l-4.34,-34.7l4,-10.08l1,-0.77c9.03,2.57 4.37,35.81 3.2,43.32z"/>
  <path id="svg_46" opacity="0.1" d="m458.44,181.04l0,9.4l-15.9,41.2l-4.34,-4.34a7.3,7.3 0 0 1 -0.66,-0.82c1.88,-21.48 20.9,-45.44 20.9,-45.44z"/>
  <path id="svg_47" opacity="0.1" d="m547.11,358.56c-10.11,2.53 -62.89,14.93 -78.55,3.19c-6.18,-4.63 -13.46,-6.33 -20.27,-6.6a45.58,45.58 0 0 1 2.2,-6.41l77.67,3.61l4.58,0.21l11,0.51c1.2,1.82 2.32,3.65 3.37,5.49z"/>
  <path id="svg_48" fill="#f8bdc5" d="m411.1,10.09s10.84,18.07 18.07,0"/>
  <path id="svg_49" fill="#f8bdc5" d="m634.09,47.31s-4.34,21.69 13,11.57"/>
  <g id="svg_50" opacity="0.1">
   <path id="svg_51" d="m499.89,449.14c-0.35,-4.4 -0.61,-7.15 -0.61,-7.15c-8,2.17 -7.23,107.7 -7.23,107.7l0,68.67c-5.08,4.44 -10,6.28 -14.35,6.67c5.22,0.46 11.44,-1 18,-6.67l0,-68.67s-0.56,-76.47 4.19,-100.55z"/>
   <path id="svg_52" d="m552.83,371.22c-0.61,-1.54 -1.26,-3.09 -2,-4.63c-1.22,-2.68 -2.59,-5.37 -4.11,-8c-1,-1.84 -2.18,-3.67 -3.38,-5.49l-11,-0.51l-4.58,-0.21l-77.67,-3.61l-0.07,0.16l74.13,3.45l4.58,0.21l11,0.51c1.2,1.81 2.33,3.65 3.38,5.49c1.52,2.67 2.89,5.36 4.11,8c0.7,1.54 1.36,3.09 2,4.63c14.78,37.3 3.56,73.65 3.56,73.65l-4.26,29.86a215.92,215.92 0 0 1 -7.86,33.43c-3.06,9.85 -0.89,22 -0.89,22s2.89,46.26 -2.17,57.83s-4.34,28.19 -4.34,28.19a21,21 0 0 1 -9.06,2.5a23,23 0 0 0 12.67,-2.5s-0.72,-16.63 4.34,-28.19s2.17,-57.83 2.17,-57.83s-2.17,-12.16 0.89,-22a215.92,215.92 0 0 0 7.86,-33.43l4.26,-29.86s11.22,-36.37 -3.56,-73.65z"/>
  </g>
  <path id="svg_53" fill="#eb6475" d="m518.29,210.32c10,4.71 33.4,-13.38 33.4,-13.38c10.12,2.89 2.89,44.82 2.89,44.82l-0.39,1.74c-2.2,9.89 -3.53,19.94 -4.76,30c-0.93,7.59 -7.86,14.53 -7.86,14.53c-12.29,23.13 7.23,68.67 7.23,68.67s-62.89,16.63 -80.23,3.61s-43.37,-2.89 -43.37,-2.89c12.29,-10.84 13,-78.07 13,-78.07l0,-52c1.45,-21.69 21,-46.26 21,-46.26c8,22.41 30.23,23.89 30.23,23.89c4.93,8 11,5.75 11,5.75l17.86,-0.41z"/>
  <path id="svg_54" opacity="0.1" d="m505.29,122.06a17.73,17.73 0 0 0 -7.53,0c-7.86,2.17 -10.33,12.08 -16.4,17.52c-2.18,2 -4.87,3.34 -6.85,5.51c-3.52,3.86 -4.23,9.58 -3.48,14.75s2.75,10.07 4,15.14a52.39,52.39 0 0 1 1.39,15.52a9.13,9.13 0 0 1 -1.34,4.91c-1.45,2 -4.12,2.63 -6,4.23c-5.74,4.94 -1,15.19 -5.21,21.5c-1.81,2.73 -5.2,4.53 -5.89,7.73c-0.49,2.27 0.55,4.56 1.57,6.65c2.68,5.5 5.46,11.15 10,15.25s10.15,6.16 15.73,8.25c1.69,0.63 3.81,1.18 5.1,-0.07c1.59,-1.56 0.39,-4.2 -0.71,-6.13c-1.74,-3 -3.1,-6.62 -2.08,-10s4.29,-5.62 6.49,-8.44c5.67,-7.3 3.81,-17.78 1,-26.58c-1.19,-3.71 -2.53,-7.66 -1.52,-11.43c0.43,-1.62 1.28,-3.09 1.82,-4.68c2.4,-7.08 -1.63,-14.85 -0.45,-22.23a31.93,31.93 0 0 1 3,-8.27l6.35,-13.65a13.49,13.49 0 0 1 2.81,-4.42a10,10 0 0 1 7,-2.18a19,19 0 0 1 13.63,6.21c6.8,7.56 6.37,19 5.55,29.08l-0.59,7.28c-0.43,5.24 -1,10.83 -4.3,14.91c-2.57,3.16 -6.72,5.31 -7.78,9.25c-0.92,3.39 0.81,7.07 -0.1,10.46c-1.36,5.07 -7.62,6.9 -10.93,11a11.25,11.25 0 0 0 -0.82,12.65c1.26,2 3.27,4 3,6.35c-0.23,1.89 -1.93,3.42 -1.92,5.32a4.23,4.23 0 0 0 3.07,3.67a12.4,12.4 0 0 0 5.07,0.24l17.93,-1.62a6.31,6.31 0 0 0 3.19,-0.88c1.25,-0.9 1.66,-2.56 1.83,-4.09c0.72,-6.38 -1,-13.35 2.19,-18.93c1,-1.79 2.47,-3.28 3.58,-5c6.12,-9.6 -0.05,-22.62 3.28,-33.51c1.58,-5.17 5.26,-9.61 6.24,-14.92c1.3,-7.08 -2.39,-14 -3.82,-21c-1.47,-7.23 -0.68,-15.19 -4.54,-21.48c-2.95,-4.8 -8.23,-7.79 -13.69,-9.16c-5,-1.26 -10,-0.81 -15,-1.35c-4.78,-0.55 -9.22,-2.61 -13.87,-3.36z"/>
  <path id="svg_55" fill="#774e55" d="m505.29,120.61a17.73,17.73 0 0 0 -7.53,0c-7.86,2.17 -10.33,12.08 -16.4,17.52c-2.18,2 -4.87,3.34 -6.85,5.51c-3.52,3.86 -4.23,9.58 -3.48,14.75s2.75,10.07 4,15.14a52.39,52.39 0 0 1 1.39,15.52a9.13,9.13 0 0 1 -1.34,4.91c-1.45,2 -4.12,2.63 -6,4.23c-5.74,4.94 -1,15.19 -5.21,21.5c-1.81,2.73 -5.2,4.53 -5.89,7.73c-0.49,2.27 0.55,4.56 1.57,6.65c2.68,5.5 5.46,11.15 10,15.25s10.15,6.16 15.73,8.25c1.69,0.63 3.81,1.18 5.1,-0.07c1.59,-1.56 0.39,-4.2 -0.71,-6.13c-1.74,-3 -3.1,-6.62 -2.08,-10s4.29,-5.62 6.49,-8.44c5.67,-7.3 3.81,-17.78 1,-26.58c-1.19,-3.71 -2.53,-7.66 -1.52,-11.43c0.43,-1.62 1.28,-3.09 1.82,-4.68c2.4,-7.08 -1.63,-14.85 -0.45,-22.23a31.93,31.93 0 0 1 3,-8.27l6.35,-13.65a13.49,13.49 0 0 1 2.81,-4.42a10,10 0 0 1 7,-2.18a19,19 0 0 1 13.63,6.21c6.8,7.56 6.37,19 5.55,29.08l-0.59,7.28c-0.43,5.24 -1,10.83 -4.3,14.91c-2.57,3.16 -6.72,5.31 -7.78,9.25c-0.92,3.39 0.81,7.07 -0.1,10.46c-1.36,5.07 -7.62,6.9 -10.93,11a11.25,11.25 0 0 0 -0.82,12.65c1.26,2 3.27,4 3,6.35c-0.23,1.89 -1.93,3.42 -1.92,5.32a4.23,4.23 0 0 0 3.07,3.67a12.4,12.4 0 0 0 5.07,0.24l17.93,-1.62a6.31,6.31 0 0 0 3.19,-0.88c1.25,-0.9 1.66,-2.56 1.83,-4.09c0.72,-6.38 -1,-13.35 2.19,-18.93c1,-1.79 2.47,-3.28 3.58,-5c6.12,-9.6 -0.05,-22.62 3.28,-33.51c1.58,-5.17 5.26,-9.61 6.24,-14.92c1.3,-7.08 -2.39,-14 -3.82,-21c-1.47,-7.23 -0.68,-15.19 -4.54,-21.48c-2.95,-4.8 -8.23,-7.79 -13.69,-9.16c-5,-1.26 -10,-0.81 -15,-1.35c-4.78,-0.54 -9.22,-2.6 -13.87,-3.36z"/>
  <path id="svg_56" opacity="0.1" d="m466.75,286.21s14.46,4.34 35.42,-5.06l10.83,0s0.72,10.12 28.91,5.78"/>
  <ellipse id="svg_57" opacity="0.1" fill="#091e09" ry="49" rx="537" cy="690" cx="537"/>
  <rect id="svg_58" opacity="0.1" fill="#01c000" ry="5.17" rx="5.17" height="30" width="80" y="258" x="252"/>
  <rect id="svg_59" opacity="0.1" fill="#01c000" ry="5.17" rx="5.17" height="30" width="80" y="291" x="288"/>
  <rect id="svg_60" opacity="0.1" fill="#01c000" ry="5.17" rx="5.17" height="30" width="80" y="260" x="603"/>
  <rect id="svg_61" opacity="0.1" fill="#01c000" ry="5.17" rx="5.17" height="30" width="80" y="293" x="639"/>
  <rect id="svg_62" opacity="0.1" fill="#01c000" ry="5.17" rx="5.17" height="30" width="80" y="324" x="227"/>
  <rect id="svg_63" opacity="0.1" fill="#01c000" ry="5.17" rx="5.17" height="30" width="80" y="441" x="307"/>
  <rect id="svg_64" opacity="0.1" fill="#01c000" ry="5.17" rx="5.17" height="30" width="80" y="474" x="343"/>
  <rect id="svg_65" opacity="0.1" fill="#01c000" ry="5.17" rx="5.17" height="30" width="80" y="507" x="282"/>
  <rect id="svg_66" opacity="0.1" fill="#01c000" ry="5.17" rx="5.17" height="30" width="80" y="525" x="629"/>
  <rect id="svg_67" opacity="0.1" fill="#01c000" ry="5.17" rx="5.17" height="30" width="80" y="558" x="568"/>
  <g id="svg_68" opacity="0.1">
   <path id="svg_69" stroke-width="2" stroke-miterlimit="10" stroke="#535461" fill="none" d="m945.26,663.39s-14.48,-73.36 15.34,-123.64a113.3,113.3 0 0 0 15.63,-69.94a190.55,190.55 0 0 0 -7,-34.14"/>
   <path id="svg_70" fill="#01c000" d="m987.85,403.87c-0.8,8.75 -19,32.68 -19,32.68s-13.52,-26.84 -12.71,-35.6a15.92,15.92 0 0 1 31.7,2.91l0.01,0.01z"/>
   <path id="svg_71" fill="#01c000" d="m1009.6,454.77c-5.43,6.91 -33.7,17.12 -33.7,17.12s3.24,-29.88 8.67,-36.79a15.92,15.92 0 1 1 25,19.67l0.03,0z"/>
   <path id="svg_72" fill="#01c000" d="m1000.84,537.5c-8.18,3.22 -37.73,-2.24 -37.73,-2.24s17.88,-24.16 26.06,-27.38a15.92,15.92 0 0 1 11.67,29.62z"/>
   <path id="svg_73" fill="#01c000" d="m980.11,598.65c-7.52,4.56 -37.57,4.17 -37.57,4.17s13.54,-26.83 21.06,-31.39a15.92,15.92 0 1 1 16.51,27.22z"/>
   <path id="svg_74" fill="#01c000" d="m942.46,470.5c5.72,6.68 34.39,15.68 34.39,15.68s-4.5,-29.72 -10.21,-36.39a15.92,15.92 0 1 0 -24.18,20.71z"/>
   <path id="svg_75" fill="#01c000" d="m919.12,542.32c7.45,4.66 37.51,4.67 37.51,4.67s-13.18,-27 -20.64,-31.67a15.92,15.92 0 1 0 -16.87,27z"/>
   <path id="svg_76" fill="#01c000" d="m906,615.21c6.56,5.85 36.18,10.95 36.18,10.95s-8.43,-28.85 -15,-34.7a15.92,15.92 0 1 0 -21.18,23.75z"/>
  </g>
  <g id="svg_77" opacity="0.1">
   <path id="svg_78" stroke-width="2" stroke-miterlimit="10" stroke="#535461" fill="none" d="m819.63,647.29s-7.77,-39.39 8.23,-66.39a60.84,60.84 0 0 0 8.39,-37.56a102.32,102.32 0 0 0 -3.74,-18.33"/>
   <path id="svg_79" fill="#01c000" d="m842.5,507.93c-0.43,4.7 -10.2,17.55 -10.2,17.55s-7.26,-14.41 -6.83,-19.11a8.55,8.55 0 0 1 17,1.56l0.03,0z"/>
   <path id="svg_80" fill="#01c000" d="m854.17,535.26c-2.92,3.71 -18.1,9.19 -18.1,9.19s1.74,-16 4.66,-19.75a8.55,8.55 0 0 1 13.44,10.56z"/>
   <path id="svg_81" fill="#01c000" d="m849.47,579.7c-4.39,1.73 -20.26,-1.2 -20.26,-1.2s9.6,-13 14,-14.7a8.55,8.55 0 0 1 6.27,15.9l-0.01,0z"/>
   <path id="svg_82" fill="#01c000" d="m838.34,612.5c-4,2.45 -20.17,2.24 -20.17,2.24s7.27,-14.41 11.31,-16.86a8.55,8.55 0 1 1 8.86,14.62z"/>
   <path id="svg_83" fill="#01c000" d="m818.12,543.72c3.07,3.59 18.47,8.42 18.47,8.42s-2.41,-16 -5.48,-19.54a8.55,8.55 0 0 0 -13,11.12l0.01,0z"/>
   <path id="svg_84" fill="#01c000" d="m805.59,582.27c4,2.5 20.14,2.51 20.14,2.51s-7.08,-14.5 -11.08,-17a8.55,8.55 0 0 0 -9.06,14.5l0,-0.01z"/>
   <path id="svg_85" fill="#01c000" d="m798.56,621.41c3.52,3.14 19.43,5.88 19.43,5.88s-4.52,-15.49 -8,-18.63a8.55,8.55 0 0 0 -11.38,12.76l-0.05,-0.01z"/>
  </g>
  <g id="svg_86" opacity="0.1">
   <path id="svg_87" stroke-width="2" stroke-miterlimit="10" stroke="#535461" fill="none" d="m186.63,653.29s-7.77,-39.39 8.23,-66.39a60.84,60.84 0 0 0 8.39,-37.56a102.32,102.32 0 0 0 -3.74,-18.33"/>
   <path id="svg_88" fill="#01c000" d="m209.5,513.93c-0.43,4.7 -10.2,17.55 -10.2,17.55s-7.26,-14.41 -6.83,-19.11a8.55,8.55 0 0 1 17,1.56l0.03,0z"/>
   <path id="svg_89" fill="#01c000" d="m221.17,541.26c-2.92,3.71 -18.1,9.19 -18.1,9.19s1.74,-16 4.66,-19.75a8.55,8.55 0 0 1 13.44,10.56z"/>
   <path id="svg_90" fill="#01c000" d="m216.47,585.7c-4.39,1.73 -20.26,-1.2 -20.26,-1.2s9.6,-13 14,-14.7a8.55,8.55 0 0 1 6.27,15.9l-0.01,0z"/>
   <path id="svg_91" fill="#01c000" d="m205.34,618.5c-4,2.45 -20.17,2.24 -20.17,2.24s7.27,-14.41 11.31,-16.86a8.55,8.55 0 1 1 8.86,14.62z"/>
   <path id="svg_92" fill="#01c000" d="m185.12,549.72c3.07,3.59 18.47,8.42 18.47,8.42s-2.41,-16 -5.48,-19.54a8.55,8.55 0 0 0 -13,11.12l0.01,0z"/>
   <path id="svg_93" fill="#01c000" d="m172.59,588.27c4,2.5 20.14,2.51 20.14,2.51s-7.08,-14.5 -11.08,-17a8.55,8.55 0 0 0 -9.06,14.5l0,-0.01z"/>
   <path id="svg_94" fill="#01c000" d="m165.56,627.41c3.52,3.14 19.43,5.88 19.43,5.88s-4.52,-15.49 -8,-18.63a8.55,8.55 0 0 0 -11.38,12.76l-0.05,-0.01z"/>
  </g>
 </g>
</svg>