<svg id="Filled" enable-background="new 0 0 512 512" viewBox="0 0 512 512" xmlns="http://www.w3.org/2000/svg"><path d="m432 24h-24v256h32s0-168-8-256z" fill="#20754d"/><path d="m320 280-32 48-142.2-39.5c-26.8 23.1-67.2 20.1-90.2-6.7-20.1-23.3-20.7-57.5-1.6-81.6-26.6-23.3-29.3-63.7-6.1-90.3 21.2-24.3 57.3-29 84-10.9 20.4-28.8 60.4-35.6 89.2-15.2s35.6 60.4 15.2 89.2c-1 1.4-2.1 2.8-3.2 4.2l8.9 10.5 1.5 1.7z" fill="#35a872"/><circle cx="104" cy="272" fill="#eb423f" r="48"/><circle cx="192" cy="280" fill="#d9db5e" r="48"/><path d="m352.1 56c8.8 0 16-7.2 16-16 0-.3 0-.5 0-.8-.4-8.6-7.8-15.2-16.4-15.2h-23.5c-8.8 0-16 7.2-16 16v80h32v-32h7.5c8.6 0 16-6.6 16.4-15.2.4-8.8-6.4-16.3-15.2-16.8-.3 0-.6 0-.8 0z" fill="#35a872"/><path d="m383.7 165.6-3.1 26.4-1.9 16-20.7 176h-52l-15-128-1.9-16-8.8-74.4c-.2-1.9-.3-3.7-.3-5.6 0-26.5 21.4-48 47.9-48h.1 8.1c26.5 0 48 21.5 48 48-.1 1.9-.2 3.8-.4 5.6z" fill="#f78a25"/><circle cx="280" cy="272" fill="#ffd33a" r="48"/><path d="m472 48h16s-24 184-24 232h-32s9.8-168 40-232z" fill="#35a872"/><path d="m24 280h464v208h-464z" fill="#95573a"/><g fill="#b37a60"><path d="m24 440h464v48h-464z"/><path d="m24 360h464v48h-464z"/><path d="m24 280h464v48h-464z"/></g><path d="m344 152c0-4.4 3.6-8 8-8s8 3.6 8 8-3.6 8-8 8-8-3.6-8-8zm-284.8 42.2c3.2 2.8 3.7 7.7 1 11-8 10-12.2 22-12.2 34.8 0 5.5.8 10.9 2.3 16.1 6.9-23.2 28.4-40.1 53.7-40.1 19.3 0 37 10 47.1 25.8 10.2-10.9 24.8-17.8 40.9-17.8 15.6 0 30.4 6.6 40.9 17.8 6.2-9.6 15.3-17.2 26-21.6l-26.3-31.1c-12.8 11.7-29.9 18.9-48.6 18.9-4.4 0-8-3.6-8-8s3.6-8 8-8c30.9 0 56-25.1 56-56s-25.1-56-56-56c-18.1 0-35.2 8.8-45.7 23.6-2.6 3.6-7.5 4.4-11.2 1.9-1.1-.8-13-9.5-31.1-9.5-30.9 0-56 25.1-56 56 0 16.1 7 31.5 19.2 42.2zm436.8 85.8v208c0 4.4-3.6 8-8 8h-464c-4.4 0-8-3.6-8-8v-208c0-4.4 3.6-8 8-8h15.5c-4.9-9.9-7.5-20.9-7.5-32 0-14 3.9-27.3 11.4-38.9-12.4-13.2-19.4-30.8-19.4-49.1 0-39.7 32.3-72 72-72 11.9 0 23.5 2.9 33.9 8.5 13.6-15.5 33.3-24.5 54.1-24.5 39.7 0 72 32.3 72 72 0 15.2-4.7 29.3-12.8 40.9l33.2 39.2c.6 0 1.2-.1 1.8-.1l-5.8-49.5c-1.9-15.9 3.2-31.8 13.8-43.8 5.1-5.7 11.2-10.2 17.9-13.4v-69.3c0-13.2 10.8-24 24-24h23.5c13.1 0 23.8 10 24.4 22.8.3 6.4-1.9 12.4-6.1 17.2 4.2 4.7 6.4 10.8 6.1 17.2-.6 12.7-11.1 22.6-24 22.8v10.4c9.8 3 18.8 8.6 25.8 16.4 10.6 11.9 15.6 27.9 13.8 43.8l-12.4 105.4h20.8v-248c0-4.4 3.6-8 8-8h24c4.1 0 7.6 3.2 8 7.3 2.2 24.6 3.9 55.5 5 87.2 5.9-28.4 12.5-50.4 19.8-65.9 1.3-2.8 4.1-4.6 7.2-4.6h16c2.3 0 4.5 1 6 2.7s2.2 4 1.9 6.3c-.2 1.7-21.6 166.3-23.8 223h15.9c4.4 0 8 3.6 8 8zm-55.4-8h15.6c1.8-50.1 18.1-180.1 22.7-216h-1.7c-23.9 56.4-34.3 182.2-36.6 216zm-24.6 0h8.5c.9-12.8 3-40.4 6.7-72.6-.8-52.2-2.7-119.7-6.6-167.4h-8.6zm-95.9-167.4c2.6-.4 5.2-.6 7.9-.6h8.1v-16c0-4.4 3.6-8 8-8h7.5c4.5 0 8.2-3.4 8.4-7.6.1-2.2-.7-4.3-2.2-5.9s-3.6-2.5-5.8-2.5c-4.4 0-8-3.6-8-8s3.6-8 8-8c2.2 0 4.3-.9 5.8-2.5s2.3-3.7 2.2-5.9c-.2-4.2-4-7.6-8.4-7.6h-23.5c-4.4 0-8 3.6-8 8zm-22 28.8c-2.8 3.2-5.1 6.8-6.8 10.6h28.7c4.4 0 8 3.6 8 8s-3.6 8-8 8h-32c0 1.6.1 3.1.3 4.7l6.3 53.3c12.9 3.5 23.9 11.4 31.4 22.1h18c4.4 0 8 3.6 8 8s-3.6 8-8 8h-10.3c1.5 5.1 2.3 10.4 2.3 16h27.1l7.5-64h-36.6v-.3c-3.5-.9-6-4-6-7.7s2.6-6.9 6-7.7v-.4h38.5l3.2-27.3c1.3-11.3-2.3-22.7-9.8-31.3-7.6-8.5-18.5-13.4-29.9-13.4h-8c-11.4 0-22.3 4.9-29.9 13.4zm-161.5 138.6c.8-5.3 2.3-10.4 4.4-15.1-6.1-14.9-20.8-24.9-37-24.9-22.1 0-40 17.9-40 40zm16.2 0h71.2c0-4.7.6-9.2 1.7-13.6-7.4-11.4-20.1-18.4-33.7-18.4-19.3 0-35.5 13.8-39.2 32zm167.2 0c0-22.1-17.9-40-40-40s-40 17.9-40 40zm-288 16v32h448v-32zm448 112v-32h-448v32zm-448 16v16h448v-16zm448-64v-16h-448v16zm0 128v-32h-448v32z"/></svg>